<svg width="72" height="53" viewBox="0 0 72 53" fill="none" xmlns="http://www.w3.org/2000/svg">
<path d="M6.88859 47.152L7.93859 47.719C7.62125 48.1623 7.21759 48.517 6.72759 48.783C6.24225 49.049 5.71492 49.182 5.14559 49.182C4.50159 49.182 3.91359 49.0163 3.38159 48.685C2.85425 48.3537 2.43192 47.9103 2.11459 47.355C1.80192 46.795 1.64559 46.1767 1.64559 45.5C1.64559 44.9867 1.73659 44.5083 1.91859 44.065C2.10059 43.617 2.35025 43.225 2.66759 42.889C2.98959 42.5483 3.36292 42.2823 3.78759 42.091C4.21225 41.8997 4.66492 41.804 5.14559 41.804C5.71492 41.804 6.24225 41.937 6.72759 42.203C7.21759 42.469 7.62125 42.826 7.93859 43.274L6.88859 43.841C6.66459 43.5657 6.39859 43.3533 6.09059 43.204C5.78259 43.0547 5.46759 42.98 5.14559 42.98C4.71159 42.98 4.31725 43.0967 3.96259 43.33C3.61259 43.5587 3.33492 43.8643 3.12959 44.247C2.92425 44.6297 2.82159 45.0473 2.82159 45.5C2.82159 45.9527 2.92425 46.3703 3.12959 46.753C3.33959 47.131 3.61959 47.4343 3.96959 47.663C4.32425 47.8917 4.71625 48.006 5.14559 48.006C5.49092 48.006 5.81525 47.9267 6.11859 47.768C6.42192 47.6093 6.67859 47.404 6.88859 47.152ZM12.1593 49.182C11.5153 49.182 10.9273 49.0163 10.3953 48.685C9.86792 48.3537 9.44559 47.9103 9.12826 47.355C8.81559 46.795 8.65926 46.1767 8.65926 45.5C8.65926 44.9867 8.75026 44.5083 8.93226 44.065C9.11426 43.617 9.36392 43.225 9.68126 42.889C10.0033 42.5483 10.3766 42.2823 10.8013 42.091C11.2259 41.8997 11.6786 41.804 12.1593 41.804C12.8033 41.804 13.3889 41.9697 13.9163 42.301C14.4483 42.6323 14.8706 43.078 15.1833 43.638C15.5006 44.198 15.6593 44.8187 15.6593 45.5C15.6593 46.0087 15.5683 46.4847 15.3863 46.928C15.2043 47.3713 14.9523 47.7633 14.6303 48.104C14.3129 48.44 13.9419 48.7037 13.5173 48.895C13.0973 49.0863 12.6446 49.182 12.1593 49.182ZM12.1593 48.006C12.5979 48.006 12.9923 47.8917 13.3423 47.663C13.6969 47.4297 13.9746 47.124 14.1753 46.746C14.3806 46.3633 14.4833 45.948 14.4833 45.5C14.4833 45.0427 14.3783 44.6227 14.1683 44.24C13.9629 43.8573 13.6853 43.5517 13.3353 43.323C12.9853 43.0943 12.5933 42.98 12.1593 42.98C11.7206 42.98 11.3263 43.0967 10.9763 43.33C10.6263 43.5587 10.3486 43.8643 10.1433 44.247C9.93792 44.6297 9.83526 45.0473 9.83526 45.5C9.83526 45.9667 9.94026 46.3913 10.1503 46.774C10.3603 47.152 10.6426 47.453 10.9973 47.677C11.3519 47.8963 11.7393 48.006 12.1593 48.006ZM16.8175 49V42H17.9935V42.875C18.2409 42.5483 18.5512 42.2893 18.9245 42.098C19.3025 41.902 19.7132 41.804 20.1565 41.804C20.6745 41.804 21.1482 41.93 21.5775 42.182C22.0069 42.434 22.3452 42.7677 22.5925 43.183C22.8399 42.7677 23.1759 42.434 23.6005 42.182C24.0299 41.93 24.5012 41.804 25.0145 41.804C25.5419 41.804 26.0202 41.9323 26.4495 42.189C26.8789 42.441 27.2195 42.7817 27.4715 43.211C27.7282 43.6403 27.8565 44.1187 27.8565 44.646V49H26.6805V44.926C26.6805 44.5807 26.5965 44.261 26.4285 43.967C26.2605 43.673 26.0342 43.4373 25.7495 43.26C25.4649 43.0827 25.1499 42.994 24.8045 42.994C24.4592 42.994 24.1442 43.078 23.8595 43.246C23.5749 43.4093 23.3485 43.638 23.1805 43.932C23.0125 44.2213 22.9285 44.5527 22.9285 44.926V49H21.7525V44.926C21.7525 44.5527 21.6685 44.2213 21.5005 43.932C21.3325 43.638 21.1039 43.4093 20.8145 43.246C20.5299 43.078 20.2149 42.994 19.8695 42.994C19.5289 42.994 19.2139 43.0827 18.9245 43.26C18.6399 43.4373 18.4135 43.673 18.2455 43.967C18.0775 44.261 17.9935 44.5807 17.9935 44.926V49H16.8175ZM29.2589 49V42H30.4349V42.875C30.6823 42.5483 30.9926 42.2893 31.3659 42.098C31.7439 41.902 32.1546 41.804 32.5979 41.804C33.1159 41.804 33.5896 41.93 34.0189 42.182C34.4483 42.434 34.7866 42.7677 35.0339 43.183C35.2813 42.7677 35.6173 42.434 36.0419 42.182C36.4713 41.93 36.9426 41.804 37.4559 41.804C37.9833 41.804 38.4616 41.9323 38.8909 42.189C39.3203 42.441 39.6609 42.7817 39.9129 43.211C40.1696 43.6403 40.2979 44.1187 40.2979 44.646V49H39.1219V44.926C39.1219 44.5807 39.0379 44.261 38.8699 43.967C38.7019 43.673 38.4756 43.4373 38.1909 43.26C37.9063 43.0827 37.5913 42.994 37.2459 42.994C36.9006 42.994 36.5856 43.078 36.3009 43.246C36.0163 43.4093 35.7899 43.638 35.6219 43.932C35.4539 44.2213 35.3699 44.5527 35.3699 44.926V49H34.1939V44.926C34.1939 44.5527 34.1099 44.2213 33.9419 43.932C33.7739 43.638 33.5453 43.4093 33.2559 43.246C32.9713 43.078 32.6563 42.994 32.3109 42.994C31.9703 42.994 31.6553 43.0827 31.3659 43.26C31.0813 43.4373 30.8549 43.673 30.6869 43.967C30.5189 44.261 30.4349 44.5807 30.4349 44.926V49H29.2589ZM41.4204 46.34V42H42.5964V46.081C42.5964 46.4357 42.6827 46.7577 42.8554 47.047C43.028 47.3363 43.259 47.5673 43.5484 47.74C43.8424 47.908 44.1644 47.992 44.5144 47.992C44.869 47.992 45.1887 47.908 45.4734 47.74C45.7627 47.5673 45.9937 47.3363 46.1664 47.047C46.339 46.7577 46.4254 46.4357 46.4254 46.081V42H47.6014L47.6084 49H46.4324L46.4254 48.111C46.178 48.4377 45.8654 48.699 45.4874 48.895C45.1094 49.0863 44.701 49.182 44.2624 49.182C43.7397 49.182 43.2614 49.056 42.8274 48.804C42.398 48.5473 42.055 48.2043 41.7984 47.775C41.5464 47.3457 41.4204 46.8673 41.4204 46.34ZM55.2028 44.646V49H54.0268V44.905C54.0268 44.5503 53.9405 44.2283 53.7678 43.939C53.5951 43.6497 53.3641 43.421 53.0748 43.253C52.7855 43.0803 52.4635 42.994 52.1088 42.994C51.7588 42.994 51.4368 43.0803 51.1428 43.253C50.8535 43.421 50.6225 43.6497 50.4498 43.939C50.2771 44.2283 50.1908 44.5503 50.1908 44.905V49H49.0148V42H50.1908V42.875C50.4381 42.5483 50.7508 42.2893 51.1288 42.098C51.5068 41.902 51.9175 41.804 52.3608 41.804C52.8835 41.804 53.3595 41.9323 53.7888 42.189C54.2228 42.441 54.5658 42.7817 54.8178 43.211C55.0745 43.6403 55.2028 44.1187 55.2028 44.646ZM56.6027 42H57.7787V49H56.6027V42ZM57.2047 40.859C57.018 40.859 56.8617 40.7983 56.7357 40.677C56.6097 40.5557 56.5467 40.404 56.5467 40.222C56.5467 40.04 56.6097 39.8883 56.7357 39.767C56.8617 39.6457 57.0157 39.585 57.1977 39.585C57.3797 39.585 57.5337 39.6457 57.6597 39.767C57.7857 39.8883 57.8487 40.04 57.8487 40.222C57.8487 40.404 57.7857 40.5557 57.6597 40.677C57.5384 40.7983 57.3867 40.859 57.2047 40.859ZM63.0861 43.176H61.4971L61.4901 49H60.3141L60.3211 43.176H59.1171V42H60.3211L60.3141 39.802H61.4901L61.4971 42H63.0861V43.176ZM68.9719 42H70.2179L66.3889 52.5H65.1429L66.4099 49L63.8969 42H65.1849L66.9979 47.383L68.9719 42Z" fill="#6E7747"/>
<path d="M33.925 13.75C33.925 16.5106 31.6806 18.75 28.9 18.75C26.1194 18.75 23.875 16.5106 23.875 13.75C23.875 10.9894 26.1194 8.75 28.9 8.75C31.6806 8.75 33.925 10.9894 33.925 13.75ZM32.3324 22.0096C32.5179 21.9316 32.6958 21.8929 32.86 21.8929C35.7282 21.8929 38.05 24.2092 38.05 27.0571V28.5357C38.05 29.4789 37.2803 30.25 36.325 30.25H21.475C20.5197 30.25 19.75 29.4789 19.75 28.5357V27.0571C19.75 24.2092 22.0718 21.8929 24.94 21.8929C25.1048 21.8929 25.283 21.9316 25.4683 22.0094C26.5226 22.4518 27.674 22.7143 28.9 22.7143C30.125 22.7143 31.2801 22.4522 32.3324 22.0096ZM47.95 14.5714C47.95 16.8751 46.0717 18.75 43.75 18.75C41.4283 18.75 39.55 16.8751 39.55 14.5714C39.55 12.2677 41.4283 10.3929 43.75 10.3929C46.0717 10.3929 47.95 12.2677 47.95 14.5714ZM46.0717 21.9189C46.1294 21.9005 46.1808 21.8929 46.225 21.8929C49.0056 21.8929 51.25 24.1322 51.25 26.8929C51.25 27.8361 50.4803 28.6071 49.525 28.6071H41.2V27.0571C41.2 25.2352 40.5945 23.5615 39.595 22.1991C40.1231 22.0032 40.6854 21.8929 41.275 21.8929C41.3192 21.8929 41.3706 21.9005 41.4283 21.9189C42.1457 22.1485 42.9204 22.3036 43.75 22.3036C44.5796 22.3036 45.3543 22.1485 46.0717 21.9189Z" fill="#6E7747" stroke="#6E7747" stroke-width="1.5" stroke-linejoin="round"/>
</svg>
