<?xml version="1.0" encoding="UTF-8"?>
<svg id="favicon2" xmlns="http://www.w3.org/2000/svg" viewBox="0 0 32 32">
  <defs>
    <style>
      .cls-1 {
        fill: #f0983f;
      }

      .cls-1, .cls-2 {
        stroke-width: 0px;
      }

      .cls-2 {
        fill: #911c12;
      }
    </style>
  </defs>
  <g id="icon">
    <g>
      <path class="cls-2" d="M15.16,5.8c-5.12,0-5.71,6.38-1.13,12.36.57.74,1.68.74,2.25,0,4.59-5.99,3.99-12.36-1.13-12.36h0ZM15.16,11.73c-.94,0-1.71-.77-1.71-1.71s.77-1.71,1.71-1.71,1.71.77,1.71,1.71-.77,1.71-1.71,1.71Z"/>
      <path class="cls-1" d="M9.09,9.11c.28-2.8,2.53-5.06,5.33-5.33,2.96-.29,5.53,1.61,6.31,4.26.18.61.73,1.05,1.37,1.05.93,0,1.62-.89,1.37-1.78-1.09-3.85-4.74-6.63-8.98-6.38-4.24.25-7.95,3.81-8.23,8.2-.14,2.19.53,4.23,1.74,5.84.57.76,1.72.72,2.26-.06,0,0,.01-.02.02-.02.35-.5.32-1.16-.04-1.65-.84-1.14-1.29-2.58-1.14-4.14h0Z"/>
      <path class="cls-1" d="M21.96,22.36s-.02,0-.03,0c-.63.04-1.16.49-1.28,1.1-.14.68-.39,1.33-.75,1.92-.38.63-.22,1.45.38,1.87,0,0,.02.01.02.02.66.46,1.57.29,1.99-.4.53-.87.92-1.84,1.12-2.86.18-.9-.55-1.72-1.47-1.65h0Z"/>
      <path class="cls-1" d="M18.86,27.78c-.4-.29-.92-.34-1.36-.12-.32.16-.66.3-1.02.4-.78.21-1.56.25-2.31.13-.6-.1-1.19.25-1.42.84,0,0,0,.02-.01.03-.33.84.16,1.8,1.02,1.94.99.16,2.03.14,3.08-.11.64-.15,1.26-.38,1.83-.67.92-.47,1.02-1.82.18-2.43h0Z"/>
      <path class="cls-1" d="M9.44,24.84c-.26-.55-.85-.91-1.46-.83-.95.12-1.52,1.12-1.12,1.98.57,1.23,1.41,2.29,2.43,3.12.68.55,1.7.34,2.11-.44,0,0,0-.02.01-.02.31-.58.18-1.31-.34-1.73-.68-.55-1.25-1.26-1.63-2.08h0Z"/>
      <path class="cls-1" d="M20.94,16c-.68-.67-1.82-.46-2.24.4v.03c-.28.55-.15,1.19.28,1.62.52.51.95,1.12,1.26,1.8.27.6.92.93,1.56.8,0,0,.02,0,.03,0,.87-.18,1.36-1.13,1-1.94-.46-1.02-1.11-1.94-1.89-2.7h0Z"/>
    </g>
  </g>
</svg>