<?xml version="1.0" encoding="UTF-8"?>
<svg id="favicon_3" data-name="favicon 3" xmlns="http://www.w3.org/2000/svg" viewBox="0 0 48 48">
  <defs>
    <style>
      .cls-1 {
        fill: #f0983f;
      }

      .cls-1, .cls-2 {
        stroke-width: 0px;
      }

      .cls-2 {
        fill: #911c12;
      }
    </style>
  </defs>
  <g id="icon">
    <g>
      <path class="cls-2" d="M23.4,9.29c-7.53,0-8.4,9.38-1.65,18.18.83,1.09,2.47,1.09,3.31,0,6.74-8.81,5.87-18.18-1.65-18.18h0ZM23.4,18.01c-1.39,0-2.51-1.13-2.51-2.52s1.13-2.52,2.51-2.52,2.51,1.13,2.51,2.52-1.13,2.52-2.51,2.52Z"/>
      <path class="cls-1" d="M14.47,14.15c.41-4.12,3.72-7.43,7.83-7.84,4.35-.42,8.14,2.36,9.28,6.27.26.9,1.07,1.54,2.01,1.54,1.37,0,2.38-1.3,2.01-2.62-1.61-5.66-6.97-9.75-13.2-9.38-6.23.37-11.69,5.6-12.11,12.06-.21,3.23.78,6.22,2.55,8.59.84,1.12,2.53,1.06,3.33-.08,0-.01.02-.02.02-.03.51-.73.48-1.7-.05-2.42-1.24-1.67-1.89-3.8-1.67-6.08h0Z"/>
      <path class="cls-1" d="M33.4,33.64s-.03,0-.04,0c-.92.06-1.7.71-1.88,1.62-.2,1.01-.58,1.96-1.11,2.82-.56.93-.32,2.13.56,2.75.01,0,.02.02.03.02.97.68,2.32.42,2.93-.59.79-1.28,1.35-2.7,1.65-4.2.27-1.32-.81-2.52-2.16-2.43h0Z"/>
      <path class="cls-1" d="M28.84,41.6c-.59-.43-1.35-.5-2-.17-.47.24-.97.44-1.49.58-1.15.32-2.3.36-3.39.19-.88-.14-1.74.37-2.09,1.24,0,.01-.01.03-.02.04-.49,1.24.24,2.64,1.5,2.85,1.46.24,2.99.2,4.53-.16.95-.22,1.85-.55,2.69-.99,1.36-.7,1.5-2.67.26-3.58h0Z"/>
      <path class="cls-1" d="M14.99,37.29c-.39-.82-1.25-1.33-2.15-1.22-1.4.17-2.24,1.65-1.65,2.92.84,1.81,2.08,3.37,3.58,4.59,1,.81,2.51.49,3.1-.65,0-.01.01-.02.02-.04.45-.86.26-1.93-.49-2.54-1.01-.82-1.84-1.85-2.4-3.05h0Z"/>
      <path class="cls-1" d="M31.9,24.28c-1.01-.98-2.68-.67-3.29.59l-.02.04c-.39.8-.21,1.76.43,2.38.77.75,1.39,1.64,1.85,2.65.4.88,1.35,1.37,2.3,1.17.01,0,.03,0,.04,0,1.28-.27,2-1.65,1.47-2.85-.68-1.51-1.63-2.85-2.78-3.97h0Z"/>
    </g>
  </g>
</svg>