<?xml version="1.0" encoding="UTF-8"?>
<svg id="full_colour_copy" data-name="full colour copy" xmlns="http://www.w3.org/2000/svg" viewBox="0 0 200 150">
  <defs>
    <style>
      .cls-1 {
        fill: #911c12;
      }

      .cls-1, .cls-2, .cls-3, .cls-4 {
        stroke-width: 0px;
      }

      .cls-2 {
        fill: #f0983f;
      }

      .cls-3 {
        fill: #911c12;
      }

      .cls-4 {
        fill: #f0983f;
      }
    </style>
  </defs>
  <g id="icon">
    <g>
      <path class="cls-3" d="M34.66,54.62c-10.23,0-11.42,12.74-2.25,24.71,1.13,1.48,3.36,1.48,4.5,0,9.17-11.97,7.98-24.71-2.25-24.71h0ZM34.66,66.46c-1.89,0-3.42-1.53-3.42-3.42s1.53-3.42,3.42-3.42,3.42,1.53,3.42,3.42-1.53,3.42-3.42,3.42Z"/>
      <path class="cls-2" d="M22.52,61.22c.55-5.6,5.05-10.11,10.65-10.65,5.91-.58,11.06,3.21,12.61,8.52.36,1.23,1.45,2.1,2.73,2.1,1.86,0,3.24-1.77,2.73-3.56-2.19-7.69-9.47-13.25-17.95-12.75-8.47.5-15.89,7.61-16.46,16.39-.28,4.39,1.05,8.46,3.47,11.67,1.14,1.52,3.44,1.45,4.52-.11.01-.01.02-.03.03-.05.69-1,.65-2.32-.07-3.29-1.68-2.27-2.57-5.16-2.27-8.27h0Z"/>
      <path class="cls-2" d="M48.25,87.72s-.04,0-.06,0c-1.25.08-2.31.97-2.56,2.2-.28,1.37-.79,2.66-1.5,3.84-.76,1.26-.44,2.9.77,3.74.01.01.03.02.05.03,1.32.92,3.15.57,3.99-.8,1.07-1.74,1.84-3.67,2.25-5.71.36-1.8-1.1-3.43-2.93-3.3h0Z"/>
      <path class="cls-2" d="M42.05,98.54c-.8-.58-1.84-.68-2.72-.23-.64.33-1.32.59-2.03.79-1.57.43-3.13.5-4.61.26-1.2-.19-2.37.5-2.84,1.68,0,.02-.01.04-.02.05-.67,1.69.33,3.59,2.04,3.87,1.98.32,4.06.27,6.15-.22,1.29-.3,2.51-.75,3.66-1.34,1.84-.95,2.04-3.63.36-4.86h0Z"/>
      <path class="cls-2" d="M23.22,92.68c-.53-1.11-1.7-1.81-2.93-1.66-1.9.23-3.05,2.24-2.25,3.96,1.14,2.46,2.82,4.58,4.87,6.24,1.36,1.11,3.41.67,4.22-.89,0-.02.02-.03.02-.05.62-1.17.35-2.62-.67-3.45-1.37-1.11-2.5-2.52-3.27-4.15h0Z"/>
      <path class="cls-2" d="M46.21,74.99c-1.37-1.33-3.64-.91-4.47.8l-.02.05c-.53,1.09-.28,2.39.59,3.24,1.04,1.02,1.9,2.24,2.51,3.6.54,1.2,1.84,1.86,3.12,1.59.02,0,.04,0,.06-.01,1.74-.37,2.72-2.25,2-3.88-.92-2.05-2.21-3.87-3.78-5.39h0Z"/>
    </g>
  </g>
  <g id="wordmark">
    <path class="cls-4" d="M77.9,77.16c1.41,1.2,3.09,1.81,5.04,1.82,2.3-.03,3.47-.88,3.51-2.55.02-1.37-.75-2.19-2.31-2.46-.71-.1-1.5-.21-2.35-.34-1.52-.26-2.68-.84-3.48-1.75-.82-.93-1.23-2.06-1.23-3.39,0-1.6.51-2.89,1.54-3.87,1-.97,2.41-1.47,4.24-1.48,2.2.05,4.12.68,5.75,1.89l-1.5,2.28c-1.33-.91-2.79-1.38-4.39-1.41-.83,0-1.52.21-2.07.64-.58.44-.87,1.11-.89,1.99,0,.53.2,1.01.6,1.43.4.44,1.03.74,1.91.9.49.08,1.15.18,1.99.29,1.66.23,2.89.85,3.69,1.85.79.98,1.18,2.12,1.18,3.42-.09,3.5-2.16,5.28-6.22,5.33-2.63,0-4.88-.83-6.77-2.5l1.76-2.09Z"/>
    <path class="cls-4" d="M98.84,80.44h-.05c-.24.44-.6.77-1.09.98-.49.22-1.16.33-2.02.33-1.41-.02-2.5-.4-3.26-1.15-.8-.74-1.2-1.68-1.2-2.83s.35-2,1.05-2.72c.7-.74,1.72-1.11,3.06-1.13h3.51v-1.38c.02-1.15-.85-1.71-2.59-1.68-.63,0-1.13.07-1.5.2-.38.16-.68.43-.9.81l-1.99-1.57c.96-1.3,2.39-1.93,4.27-1.9,1.59-.02,2.85.29,3.8.93.95.65,1.43,1.78,1.45,3.37v8.9h-2.53v-1.15ZM98.84,76.07h-3.04c-1.48.03-2.21.56-2.19,1.57,0,.44.19.82.57,1.13.36.34.97.51,1.82.51,1.06.02,1.82-.11,2.25-.39.4-.28.6-.9.6-1.88v-.94Z"/>
    <path class="cls-4" d="M108,66.83c-.03-.75.33-1.11,1.1-1.09h31.46v-2.46h-31.65c-.98,0-1.79.27-2.44.82-.67.59-1,1.5-1,2.74v1.72h-1.28v2.01h1.28v11.03h2.53v-11.03h2.55v-2.01h-2.55v-1.73Z"/>
    <rect class="cls-4" x="142.79" y="63.29" width="3.89" height="2.46"/>
    <rect class="cls-4" x="148.9" y="63.29" width="3.85" height="2.46"/>
    <rect class="cls-4" x="154.86" y="63.29" width="4.12" height="2.46"/>
    <rect class="cls-4" x="161.21" y="63.29" width="5.41" height="2.46"/>
    <polygon class="cls-4" points="168.38 65.75 178.6 65.75 176.07 63.29 168.38 63.29 168.38 65.75"/>
    <path class="cls-4" d="M114.12,76.07c0,1.05.29,1.84.88,2.39.54.55,1.26.83,2.14.83,1.03,0,1.95-.42,2.76-1.27l1.84,1.62c-1.29,1.42-2.8,2.13-4.55,2.11-.66,0-1.31-.1-1.94-.3-.32-.11-.62-.25-.92-.44-.32-.16-.61-.36-.89-.59-.53-.49-.97-1.16-1.3-2.03-.36-.84-.55-1.93-.55-3.26s.16-2.36.47-3.21c.32-.87.72-1.56,1.21-2.06.5-.51,1.07-.88,1.69-1.11.62-.23,1.22-.34,1.82-.34,1.44.02,2.66.51,3.66,1.47,1.01.98,1.53,2.33,1.54,4.04v2.16h-7.87ZM119.45,73.91c-.03-1.02-.3-1.79-.79-2.31-.49-.5-1.11-.74-1.88-.74s-1.39.25-1.88.74c-.48.52-.74,1.29-.79,2.31h5.34Z"/>
    <path class="cls-1" d="M137.25,76.48c-.39,1.7-1.13,3-2.23,3.91-1.13.9-2.46,1.35-4,1.35-1.39-.03-2.56-.39-3.49-1.06-.95-.64-1.64-1.39-2.07-2.23-.13-.28-.25-.54-.35-.79-.1-.26-.18-.59-.24-.98-.12-.74-.18-2.15-.18-4.24s.06-3.55.18-4.27c.13-.72.33-1.3.6-1.75.43-.85,1.12-1.6,2.07-2.26.93-.67,2.1-1.01,3.49-1.03,1.71.02,3.11.54,4.18,1.57,1.08,1.04,1.76,2.32,2.04,3.85h-2.85c-.22-.74-.62-1.37-1.19-1.89-.6-.49-1.33-.75-2.19-.77-.63.02-1.18.15-1.63.39-.46.25-.84.57-1.12.94-.35.39-.58.9-.69,1.52-.13.65-.2,1.88-.2,3.69s.07,3.02.2,3.66c.11.64.34,1.15.69,1.55.28.38.66.68,1.12.92.46.28,1,.42,1.63.42,1.51,0,2.64-.84,3.39-2.5h2.85Z"/>
    <path class="cls-1" d="M137.55,68.56h2.69l2.99,9.13h.05l2.98-9.13h2.7l-5.43,15.73c-.35.98-.83,1.66-1.45,2.03-.62.36-1.33.54-2.11.54h-63.06l2.2-2.46h60.77c.33,0,.64-.09.92-.28.28-.19.48-.48.6-.85l.69-2.19-4.52-12.53Z"/>
    <path class="cls-1" d="M160.07,79.49c-.55.65-1.2,1.18-1.95,1.59-.75.43-1.61.65-2.59.66-1.49,0-2.8-.52-3.92-1.57-1.17-1.05-1.76-2.74-1.8-5.09.03-2.37.63-4.08,1.8-5.15,1.13-1.05,2.43-1.56,3.93-1.54.98.02,1.84.23,2.59.63.75.41,1.39.96,1.94,1.64l-1.87,1.72c-.64-.88-1.5-1.34-2.57-1.37-2.16-.03-3.25,1.33-3.28,4.08.03,2.74,1.13,4.09,3.28,4.04,1.07-.02,1.93-.47,2.57-1.36l1.87,1.72Z"/>
    <path class="cls-1" d="M162.2,63.29h2.53v14.95c0,.6.32.89.95.89h.88v2.46h-1.13c-.92,0-1.69-.24-2.28-.71-.63-.48-.95-1.3-.95-2.44v-15.16Z"/>
    <path class="cls-1" d="M170.73,76.07c0,1.05.29,1.84.88,2.39.54.55,1.26.83,2.14.83,1.03,0,1.95-.42,2.76-1.27l1.84,1.62c-1.29,1.42-2.8,2.13-4.55,2.11-.67,0-1.31-.1-1.95-.3-.32-.11-.62-.25-.92-.44-.32-.16-.61-.36-.89-.59-.53-.49-.97-1.16-1.3-2.03-.36-.84-.55-1.93-.55-3.26s.16-2.36.47-3.21c.32-.87.72-1.56,1.22-2.06.5-.51,1.06-.88,1.69-1.11.62-.23,1.22-.34,1.82-.34,1.44.02,2.66.51,3.66,1.47,1.01.98,1.53,2.33,1.54,4.04v2.16h-7.87ZM176.07,73.91c-.03-1.02-.3-1.79-.79-2.31-.49-.5-1.11-.74-1.88-.74s-1.39.25-1.88.74c-.48.52-.74,1.29-.79,2.31h5.34Z"/>
  </g>
</svg>