<svg width="72" height="52" viewBox="0 0 72 52" fill="none" xmlns="http://www.w3.org/2000/svg">
<path d="M18.0221 44.646V49H16.8461V44.905C16.8461 44.5503 16.7598 44.2283 16.5871 43.939C16.4145 43.6497 16.1835 43.421 15.8941 43.253C15.6048 43.0803 15.2828 42.994 14.9281 42.994C14.5781 42.994 14.2561 43.0803 13.9621 43.253C13.6728 43.421 13.4418 43.6497 13.2691 43.939C13.0965 44.2283 13.0101 44.5503 13.0101 44.905V49H11.8341V38.5H13.0101V42.875C13.2575 42.5483 13.5701 42.2893 13.9481 42.098C14.3261 41.902 14.7368 41.804 15.1801 41.804C15.7028 41.804 16.1788 41.9323 16.6081 42.189C17.0421 42.441 17.3851 42.7817 17.6371 43.211C17.8938 43.6403 18.0221 44.1187 18.0221 44.646ZM24.9133 42H26.0893V49H24.9133L24.8643 47.817C24.645 48.223 24.3416 48.552 23.9543 48.804C23.5716 49.056 23.1143 49.182 22.5823 49.182C22.069 49.182 21.5883 49.0863 21.1403 48.895C20.6923 48.699 20.2956 48.4307 19.9503 48.09C19.6096 47.7447 19.3436 47.348 19.1523 46.9C18.961 46.452 18.8653 45.969 18.8653 45.451C18.8653 44.9517 18.9586 44.4803 19.1453 44.037C19.332 43.5937 19.591 43.2063 19.9223 42.875C20.2583 42.539 20.6456 42.2777 21.0843 42.091C21.523 41.8997 21.9943 41.804 22.4983 41.804C23.049 41.804 23.532 41.9347 23.9473 42.196C24.3626 42.4527 24.6986 42.7863 24.9553 43.197L24.9133 42ZM22.5613 48.041C23.0233 48.041 23.4223 47.929 23.7583 47.705C24.099 47.4763 24.3603 47.1683 24.5423 46.781C24.729 46.3937 24.8223 45.9667 24.8223 45.5C24.8223 45.024 24.729 44.5947 24.5423 44.212C24.3556 43.8247 24.092 43.519 23.7513 43.295C23.4153 43.0663 23.0186 42.952 22.5613 42.952C22.0993 42.952 21.6793 43.0663 21.3013 43.295C20.9233 43.5237 20.6223 43.8317 20.3983 44.219C20.179 44.6017 20.0693 45.0287 20.0693 45.5C20.0693 45.9713 20.1836 46.4007 20.4123 46.788C20.641 47.1707 20.9443 47.4763 21.3223 47.705C21.7003 47.929 22.1133 48.041 22.5613 48.041ZM33.1864 43.176L28.8814 47.824H33.1864V49H27.2084V47.824L31.5134 43.176H27.2084V42H33.1864V43.176ZM40.1164 42H41.2924V49H40.1164L40.0674 47.817C39.8481 48.223 39.5448 48.552 39.1574 48.804C38.7748 49.056 38.3174 49.182 37.7854 49.182C37.2721 49.182 36.7914 49.0863 36.3434 48.895C35.8954 48.699 35.4988 48.4307 35.1534 48.09C34.8128 47.7447 34.5468 47.348 34.3554 46.9C34.1641 46.452 34.0684 45.969 34.0684 45.451C34.0684 44.9517 34.1618 44.4803 34.3484 44.037C34.5351 43.5937 34.7941 43.2063 35.1254 42.875C35.4614 42.539 35.8488 42.2777 36.2874 42.091C36.7261 41.8997 37.1974 41.804 37.7014 41.804C38.2521 41.804 38.7351 41.9347 39.1504 42.196C39.5658 42.4527 39.9018 42.7863 40.1584 43.197L40.1164 42ZM37.7644 48.041C38.2264 48.041 38.6254 47.929 38.9614 47.705C39.3021 47.4763 39.5634 47.1683 39.7454 46.781C39.9321 46.3937 40.0254 45.9667 40.0254 45.5C40.0254 45.024 39.9321 44.5947 39.7454 44.212C39.5588 43.8247 39.2951 43.519 38.9544 43.295C38.6184 43.0663 38.2218 42.952 37.7644 42.952C37.3024 42.952 36.8824 43.0663 36.5044 43.295C36.1264 43.5237 35.8254 43.8317 35.6014 44.219C35.3821 44.6017 35.2724 45.0287 35.2724 45.5C35.2724 45.9713 35.3868 46.4007 35.6154 46.788C35.8441 47.1707 36.1474 47.4763 36.5254 47.705C36.9034 47.929 37.3164 48.041 37.7644 48.041ZM42.6916 49V42H43.8676V42.875C44.1149 42.5483 44.4276 42.2893 44.8056 42.098C45.1836 41.902 45.5942 41.804 46.0376 41.804C46.3082 41.804 46.5696 41.839 46.8216 41.909L46.3456 43.085C46.1542 43.0243 45.9676 42.994 45.7856 42.994C45.4356 42.994 45.1136 43.0803 44.8196 43.253C44.5302 43.421 44.2992 43.6497 44.1266 43.939C43.9539 44.2283 43.8676 44.5503 43.8676 44.905V49H42.6916ZM52.9613 38.5H54.1373V49H52.9613V47.81C52.7233 48.2207 52.4037 48.552 52.0023 48.804C51.601 49.056 51.1297 49.182 50.5883 49.182C50.0797 49.182 49.6037 49.0863 49.1603 48.895C48.717 48.7037 48.325 48.44 47.9843 48.104C47.6483 47.7633 47.3847 47.3713 47.1933 46.928C47.002 46.4847 46.9063 46.0087 46.9063 45.5C46.9063 44.9913 47.002 44.5153 47.1933 44.072C47.3847 43.624 47.6483 43.232 47.9843 42.896C48.325 42.5553 48.717 42.2893 49.1603 42.098C49.6037 41.9067 50.0797 41.811 50.5883 41.811C51.1297 41.811 51.601 41.937 52.0023 42.189C52.4037 42.441 52.7233 42.7723 52.9613 43.183V38.5ZM50.6023 48.041C51.0643 48.041 51.4633 47.929 51.7993 47.705C52.14 47.4763 52.4013 47.1683 52.5833 46.781C52.77 46.3937 52.8633 45.9667 52.8633 45.5C52.8633 45.024 52.77 44.5947 52.5833 44.212C52.3967 43.8247 52.133 43.519 51.7923 43.295C51.4563 43.0663 51.0597 42.952 50.6023 42.952C50.1403 42.952 49.7203 43.0663 49.3423 43.295C48.969 43.5237 48.6703 43.8317 48.4463 44.219C48.2223 44.6017 48.1103 45.0287 48.1103 45.5C48.1103 45.9713 48.2247 46.4007 48.4533 46.788C48.682 47.1707 48.9853 47.4763 49.3633 47.705C49.7413 47.929 50.1543 48.041 50.6023 48.041ZM57.9516 49.133C57.5736 49.119 57.2049 49.049 56.8456 48.923C56.4909 48.7923 56.1782 48.6173 55.9076 48.398C55.6416 48.174 55.4479 47.9173 55.3266 47.628L56.3346 47.194C56.4046 47.3527 56.5306 47.502 56.7126 47.642C56.8946 47.782 57.1046 47.894 57.3426 47.978C57.5806 48.062 57.8209 48.104 58.0636 48.104C58.3202 48.104 58.5606 48.0643 58.7846 47.985C59.0086 47.9057 59.1906 47.789 59.3306 47.635C59.4752 47.4763 59.5476 47.2873 59.5476 47.068C59.5476 46.8347 59.4682 46.6527 59.3096 46.522C59.1556 46.3867 58.9596 46.2817 58.7216 46.207C58.4882 46.1277 58.2502 46.053 58.0076 45.983C57.5269 45.8617 57.0976 45.717 56.7196 45.549C56.3416 45.3763 56.0429 45.1593 55.8236 44.898C55.6089 44.632 55.5016 44.2937 55.5016 43.883C55.5016 43.449 55.6206 43.0733 55.8586 42.756C56.1012 42.4387 56.4186 42.1937 56.8106 42.021C57.2026 41.8483 57.6226 41.762 58.0706 41.762C58.6352 41.762 59.1509 41.8833 59.6176 42.126C60.0842 42.3687 60.4319 42.6977 60.6606 43.113L59.7156 43.666C59.6362 43.498 59.5149 43.351 59.3516 43.225C59.1882 43.0943 59.0016 42.9917 58.7916 42.917C58.5816 42.8423 58.3669 42.8027 58.1476 42.798C57.8769 42.7887 57.6226 42.8237 57.3846 42.903C57.1512 42.9823 56.9622 43.1037 56.8176 43.267C56.6776 43.4257 56.6076 43.624 56.6076 43.862C56.6076 44.0953 56.6822 44.2727 56.8316 44.394C56.9856 44.5153 57.1839 44.6133 57.4266 44.688C57.6739 44.758 57.9422 44.8397 58.2316 44.933C58.6562 45.0683 59.0529 45.2247 59.4216 45.402C59.7902 45.5793 60.0866 45.801 60.3106 46.067C60.5392 46.333 60.6512 46.662 60.6466 47.054C60.6466 47.4833 60.5182 47.859 60.2616 48.181C60.0049 48.4983 59.6712 48.741 59.2606 48.909C58.8546 49.077 58.4182 49.1517 57.9516 49.133Z" fill="#6E7747"/>
<path d="M47.98 27.2471L47.9821 27.2506C48.158 27.5495 48.2503 27.8888 48.25 28.2338C48.2497 28.5788 48.1569 28.9179 47.9804 29.2165L47.9779 29.2209C47.7949 29.5355 47.5302 29.7972 47.2103 29.9783C46.8904 30.1595 46.527 30.2534 46.1576 30.2499V30.2498H46.1505H25.8507V30.2498L25.8429 30.2499C25.4732 30.2537 25.1095 30.1599 24.7893 29.9788C24.469 29.7976 24.2041 29.5358 24.021 29.2209L24.0187 29.2171C23.8425 28.9183 23.75 28.5791 23.75 28.2341C23.75 27.8891 23.8425 27.5499 24.0187 27.2512L24.0187 27.2512L24.0211 27.2471L34.1678 9.7878C34.1683 9.78693 34.1688 9.78606 34.1693 9.78519C34.3559 9.47144 34.6223 9.21042 34.943 9.02858C35.2645 8.8462 35.6291 8.75 36.0006 8.75C36.372 8.75 36.7366 8.8462 37.0582 9.02858C37.3789 9.21043 37.6453 9.47146 37.8319 9.78524C37.8324 9.78609 37.8329 9.78695 37.8334 9.7878L47.98 27.2471Z" stroke="#6E7747" stroke-width="1.5"/>
<rect x="35" y="15" width="2" height="7" rx="1" fill="#6E7747"/>
<circle cx="36" cy="25" r="1" fill="#6E7747"/>
</svg>
