<?xml version="1.0" encoding="UTF-8"?>
<svg id="monochromatic" xmlns="http://www.w3.org/2000/svg" viewBox="0 0 200 150">
  <defs>
    <style>
      .cls-1 {
        fill: #f0983f;
      }

      .cls-1, .cls-2, .cls-3 {
        stroke-width: 0px;
      }

      .cls-2 {
        fill: #ad5c0a;
      }

      .cls-3 {
        fill: #f0983f;
      }
    </style>
  </defs>
  <g id="icon">
    <g>
      <path class="cls-2" d="M41.95,55.54c-5.76,0-6.43,7.17-1.27,13.91.64.83,1.89.83,2.53,0,5.16-6.74,4.49-13.91-1.27-13.91h0ZM41.95,62.21c-1.06,0-1.92-.86-1.92-1.93s.86-1.93,1.92-1.93,1.92.86,1.92,1.93-.86,1.93-1.92,1.93Z"/>
      <path class="cls-1" d="M35.12,59.26c.31-3.15,2.85-5.69,5.99-6,3.33-.33,6.23,1.81,7.1,4.8.2.69.82,1.18,1.54,1.18,1.05,0,1.82-1,1.54-2.01-1.23-4.33-5.33-7.46-10.1-7.18-4.77.28-8.95,4.28-9.26,9.23-.16,2.47.59,4.76,1.95,6.57.64.86,1.94.81,2.55-.06,0,0,.01-.02.02-.03.39-.56.36-1.3-.04-1.85-.95-1.28-1.45-2.91-1.28-4.65h0Z"/>
      <path class="cls-1" d="M49.6,74.17s-.02,0-.03,0c-.7.05-1.3.55-1.44,1.24-.16.77-.44,1.5-.85,2.16-.43.71-.24,1.63.43,2.1,0,0,.02.01.03.02.74.52,1.77.32,2.24-.45.6-.98,1.03-2.07,1.26-3.21.21-1.01-.62-1.93-1.65-1.86h0Z"/>
      <path class="cls-1" d="M46.11,80.26c-.45-.33-1.04-.38-1.53-.13-.36.19-.74.33-1.14.44-.88.24-1.76.28-2.59.14-.67-.11-1.33.28-1.6.95,0,0,0,.02-.01.03-.38.95.19,2.02,1.15,2.18,1.12.18,2.29.15,3.46-.12.72-.17,1.41-.42,2.06-.76,1.04-.53,1.15-2.04.2-2.74h0Z"/>
      <path class="cls-1" d="M35.51,76.97c-.3-.62-.96-1.02-1.65-.94-1.07.13-1.71,1.26-1.26,2.23.64,1.38,1.59,2.58,2.74,3.51.77.62,1.92.38,2.38-.5,0,0,0-.02.01-.03.35-.66.2-1.48-.38-1.94-.77-.62-1.41-1.42-1.84-2.34h0Z"/>
      <path class="cls-1" d="M48.45,67.01c-.77-.75-2.05-.51-2.52.45v.03c-.31.61-.17,1.34.32,1.82.59.57,1.07,1.26,1.41,2.02.3.67,1.04,1.05,1.76.9,0,0,.02,0,.03,0,.98-.21,1.53-1.27,1.12-2.18-.52-1.15-1.24-2.18-2.13-3.04h0Z"/>
    </g>
  </g>
  <g id="wordmark">
    <path class="cls-3" d="M62.81,70.26c1.41,1.2,3.09,1.81,5.04,1.82,2.3-.03,3.47-.88,3.51-2.55.02-1.37-.75-2.19-2.31-2.46-.71-.1-1.5-.21-2.35-.34-1.52-.26-2.68-.84-3.48-1.75-.82-.93-1.23-2.06-1.23-3.39,0-1.6.51-2.89,1.54-3.87,1-.97,2.41-1.47,4.24-1.48,2.2.05,4.12.68,5.75,1.89l-1.5,2.28c-1.33-.91-2.79-1.38-4.39-1.41-.83,0-1.52.21-2.07.64-.58.44-.87,1.11-.89,1.99,0,.53.2,1.01.6,1.43.4.44,1.03.74,1.91.9.49.08,1.15.18,1.99.29,1.66.23,2.89.85,3.69,1.85.79.98,1.18,2.12,1.18,3.42-.09,3.5-2.16,5.28-6.22,5.33-2.63,0-4.88-.83-6.77-2.5l1.76-2.09Z"/>
    <path class="cls-3" d="M83.74,73.54h-.05c-.24.44-.6.77-1.09.98-.49.22-1.16.33-2.02.33-1.41-.02-2.5-.4-3.26-1.15-.8-.74-1.2-1.68-1.2-2.83s.35-2,1.05-2.72c.7-.74,1.72-1.11,3.06-1.13h3.51v-1.38c.02-1.15-.85-1.71-2.59-1.68-.63,0-1.13.07-1.5.2-.38.16-.68.43-.9.81l-1.99-1.57c.96-1.3,2.39-1.93,4.27-1.9,1.59-.02,2.85.29,3.8.93.95.65,1.43,1.78,1.45,3.37v8.9h-2.53v-1.15ZM83.74,69.17h-3.04c-1.48.03-2.21.56-2.19,1.57,0,.44.19.82.57,1.13.36.34.97.51,1.82.51,1.06.02,1.82-.11,2.25-.39.4-.28.6-.9.6-1.88v-.94Z"/>
    <path class="cls-3" d="M92.91,59.94c-.03-.75.33-1.11,1.1-1.09h31.46v-2.46h-31.65c-.98,0-1.79.27-2.44.82-.67.59-1,1.5-1,2.74v1.72h-1.28v2.01h1.28v11.03h2.53v-11.03h2.55v-2.01h-2.55v-1.73Z"/>
    <rect class="cls-3" x="127.69" y="56.39" width="3.89" height="2.46"/>
    <rect class="cls-3" x="133.81" y="56.39" width="3.85" height="2.46"/>
    <rect class="cls-3" x="139.76" y="56.39" width="4.12" height="2.46"/>
    <rect class="cls-3" x="146.12" y="56.39" width="5.41" height="2.46"/>
    <polygon class="cls-3" points="153.29 58.85 163.51 58.85 160.98 56.39 153.29 56.39 153.29 58.85"/>
    <path class="cls-3" d="M99.02,69.17c0,1.05.29,1.84.88,2.39.54.55,1.26.83,2.14.83,1.03,0,1.95-.42,2.76-1.27l1.84,1.62c-1.29,1.42-2.8,2.13-4.55,2.11-.66,0-1.31-.1-1.94-.3-.32-.11-.62-.25-.92-.44-.32-.16-.61-.36-.89-.59-.53-.49-.97-1.16-1.3-2.03-.36-.84-.55-1.93-.55-3.26s.16-2.36.47-3.21c.32-.87.72-1.56,1.21-2.06.5-.51,1.07-.88,1.69-1.11.62-.23,1.22-.34,1.82-.34,1.44.02,2.66.51,3.66,1.47,1.01.98,1.53,2.33,1.54,4.04v2.16h-7.87ZM104.36,67.01c-.03-1.02-.3-1.79-.79-2.31-.49-.5-1.11-.74-1.88-.74s-1.39.25-1.88.74c-.48.52-.74,1.29-.79,2.31h5.34Z"/>
    <path class="cls-2" d="M122.16,69.58c-.39,1.7-1.13,3-2.23,3.91-1.13.9-2.46,1.35-4,1.35-1.39-.03-2.56-.39-3.49-1.06-.95-.64-1.64-1.39-2.07-2.23-.13-.28-.25-.54-.35-.79-.1-.26-.18-.59-.24-.98-.12-.74-.18-2.15-.18-4.24s.06-3.55.18-4.27c.13-.72.33-1.3.6-1.75.43-.85,1.12-1.6,2.07-2.26.93-.67,2.1-1.01,3.49-1.03,1.71.02,3.11.54,4.18,1.57,1.08,1.04,1.76,2.32,2.04,3.85h-2.85c-.22-.74-.62-1.37-1.19-1.89-.6-.49-1.33-.75-2.19-.77-.63.02-1.18.15-1.63.39-.46.25-.84.57-1.12.94-.35.39-.58.9-.69,1.52-.13.65-.2,1.88-.2,3.69s.07,3.02.2,3.66c.11.64.34,1.15.69,1.55.28.38.66.68,1.12.92.46.28,1,.42,1.63.42,1.51,0,2.64-.84,3.39-2.5h2.85Z"/>
    <path class="cls-2" d="M122.45,61.66h2.69l2.99,9.13h.05l2.98-9.13h2.7l-5.43,15.73c-.35.98-.83,1.66-1.45,2.03-.62.36-1.33.54-2.11.54h-63.06l2.2-2.46h60.77c.33,0,.64-.09.92-.28.28-.19.48-.48.6-.85l.69-2.19-4.52-12.53Z"/>
    <path class="cls-2" d="M144.98,72.6c-.55.65-1.2,1.18-1.95,1.59-.75.43-1.61.65-2.59.66-1.49,0-2.8-.52-3.92-1.57-1.17-1.05-1.76-2.74-1.8-5.09.03-2.37.63-4.08,1.8-5.15,1.13-1.05,2.43-1.56,3.93-1.54.98.02,1.84.23,2.59.63.75.41,1.39.96,1.94,1.64l-1.87,1.72c-.64-.88-1.5-1.34-2.57-1.37-2.16-.03-3.25,1.33-3.28,4.08.03,2.74,1.13,4.09,3.28,4.04,1.07-.02,1.93-.47,2.57-1.36l1.87,1.72Z"/>
    <path class="cls-2" d="M147.1,56.39h2.53v14.95c0,.6.32.89.95.89h.88v2.46h-1.13c-.92,0-1.69-.24-2.28-.71-.63-.48-.95-1.3-.95-2.44v-15.16Z"/>
    <path class="cls-2" d="M155.64,69.17c0,1.05.29,1.84.88,2.39.54.55,1.26.83,2.14.83,1.03,0,1.95-.42,2.76-1.27l1.84,1.62c-1.29,1.42-2.8,2.13-4.55,2.11-.67,0-1.31-.1-1.95-.3-.32-.11-.62-.25-.92-.44-.32-.16-.61-.36-.89-.59-.53-.49-.97-1.16-1.3-2.03-.36-.84-.55-1.93-.55-3.26s.16-2.36.47-3.21c.32-.87.72-1.56,1.22-2.06.5-.51,1.06-.88,1.69-1.11.62-.23,1.22-.34,1.82-.34,1.44.02,2.66.51,3.66,1.47,1.01.98,1.53,2.33,1.54,4.04v2.16h-7.87ZM160.98,67.01c-.03-1.02-.3-1.79-.79-2.31-.49-.5-1.11-.74-1.88-.74s-1.39.25-1.88.74c-.48.52-.74,1.29-.79,2.31h5.34Z"/>
  </g>
</svg>