<svg width="72" height="53" viewBox="0 0 72 53" fill="none" xmlns="http://www.w3.org/2000/svg">
<path d="M37.5294 23.6102C37.809 23.6102 38.0548 23.5043 38.2668 23.2923C38.4796 23.0794 38.5861 22.8336 38.5861 22.5549C38.5861 22.2753 38.4796 22.0295 38.2668 21.8176C38.0539 21.6056 37.8081 21.4992 37.5294 21.4983C37.2498 21.4983 37.004 21.6047 36.7921 21.8176C36.5801 22.0305 36.4737 22.2762 36.4728 22.5549C36.4728 22.8345 36.5792 23.0803 36.7921 23.2923C37.004 23.5043 37.2498 23.6102 37.5294 23.6102ZM36.9576 19.2044C36.9267 19.5332 37.1991 19.8017 37.5294 19.8017C37.8655 19.8017 38.1368 19.5389 38.1923 19.2074C38.2396 18.9256 38.3072 18.6966 38.3953 18.5205C38.5396 18.2336 38.886 17.8332 39.4344 17.3191C40.0062 16.7995 40.4049 16.335 40.6304 15.9255C40.8558 15.5178 40.9686 15.0493 40.9686 14.5198C40.9686 13.6088 40.6439 12.8498 39.9945 12.2428C39.3451 11.6349 38.5234 11.3309 37.5294 11.3309C36.7781 11.3309 36.1106 11.5339 35.5271 11.9398C35.1025 12.235 34.7518 12.6081 34.4747 13.0589C34.2986 13.3457 34.4432 13.7083 34.7511 13.8442C35.0526 13.9773 35.3995 13.8429 35.5844 13.5701C35.7747 13.2893 35.9883 13.0633 36.2252 12.8922C36.5914 12.628 37.0261 12.4958 37.5294 12.4958C38.1743 12.4958 38.7096 12.687 39.1354 13.0695C39.5593 13.4519 39.7712 13.9457 39.7712 14.5509C39.7712 14.9189 39.6684 15.2612 39.4628 15.5778C39.2562 15.8935 38.9013 16.2746 38.398 16.7211C37.828 17.2189 37.441 17.6758 37.2372 18.0916C37.093 18.385 36.9999 18.7559 36.9576 19.2044ZM30.2438 26.9412C29.6215 26.9412 29.1019 26.7328 28.6852 26.3161C28.2676 25.8985 28.0588 25.3785 28.0588 24.7562V10.185C28.0588 9.56265 28.2676 9.04312 28.6852 8.62641C29.1019 8.2088 29.6215 8 30.2438 8H44.815C45.4374 8 45.9569 8.2088 46.3736 8.62641C46.7912 9.04312 47 9.56265 47 10.185V24.7562C47 25.3785 46.7916 25.8985 46.3749 26.3161C45.9573 26.7328 45.4374 26.9412 44.815 26.9412H30.2438ZM30.2438 25.5882H44.815C45.0224 25.5882 45.2132 25.5016 45.3873 25.3285C45.5605 25.1544 45.6471 24.9636 45.6471 24.7562V10.185C45.6471 9.97755 45.5605 9.78678 45.3873 9.61271C45.2132 9.43953 45.0224 9.35294 44.815 9.35294H30.2438C30.0364 9.35294 29.8456 9.43953 29.6715 9.61271C29.4984 9.78678 29.4118 9.97755 29.4118 10.185V24.7562C29.4118 24.9636 29.4984 25.1544 29.6715 25.3285C29.8456 25.5016 30.0364 25.5882 30.2438 25.5882ZM26.185 31C25.5626 31 25.0431 30.7916 24.6264 30.3749C24.2088 29.9573 24 29.4374 24 28.815V13.5674C24 13.1937 24.3029 12.8909 24.6765 12.8909C25.0501 12.8909 25.3529 13.1937 25.3529 13.5674V28.815C25.3529 29.0224 25.4395 29.2132 25.6127 29.3873C25.7868 29.5605 25.9775 29.6471 26.185 29.6471H41.4326C41.8063 29.6471 42.1091 29.9499 42.1091 30.3235C42.1091 30.6971 41.8063 31 41.4326 31H26.185Z" fill="#6E7747"/>
<path d="M27.2846 49.196C26.608 49.196 25.9896 49.0303 25.4296 48.699C24.8743 48.3677 24.431 47.922 24.0996 47.362C23.7683 46.802 23.6026 46.1813 23.6026 45.5C23.6026 44.9913 23.6983 44.5153 23.8896 44.072C24.081 43.6287 24.3446 43.239 24.6806 42.903C25.0213 42.5623 25.4133 42.2963 25.8566 42.105C26.3 41.9137 26.776 41.818 27.2846 41.818C27.826 41.818 28.295 41.9463 28.6916 42.203C29.093 42.455 29.4126 42.7863 29.6506 43.197V42H30.8266V52.5H29.6506V47.817C29.4126 48.2277 29.093 48.5613 28.6916 48.818C28.295 49.07 27.826 49.196 27.2846 49.196ZM27.2986 42.959C26.8366 42.959 26.4166 43.0733 26.0386 43.302C25.6606 43.5307 25.3596 43.8387 25.1356 44.226C24.9163 44.6087 24.8066 45.0333 24.8066 45.5C24.8066 45.976 24.9186 46.4077 25.1426 46.795C25.3713 47.1777 25.6746 47.4833 26.0526 47.712C26.4306 47.936 26.846 48.048 27.2986 48.048C27.7606 48.048 28.1596 47.9337 28.4956 47.705C28.8316 47.4763 29.0906 47.1683 29.2726 46.781C29.4593 46.3937 29.5526 45.9667 29.5526 45.5C29.5526 45.0287 29.4593 44.6017 29.2726 44.219C29.0906 43.8363 28.8293 43.5307 28.4886 43.302C28.1526 43.0733 27.756 42.959 27.2986 42.959ZM32.1098 46.34V42H33.2858V46.081C33.2858 46.4357 33.3721 46.7577 33.5448 47.047C33.7175 47.3363 33.9485 47.5673 34.2378 47.74C34.5318 47.908 34.8538 47.992 35.2038 47.992C35.5585 47.992 35.8781 47.908 36.1628 47.74C36.4521 47.5673 36.6831 47.3363 36.8558 47.047C37.0285 46.7577 37.1148 46.4357 37.1148 46.081V42H38.2908L38.2978 49H37.1218L37.1148 48.111C36.8675 48.4377 36.5548 48.699 36.1768 48.895C35.7988 49.0863 35.3905 49.182 34.9518 49.182C34.4291 49.182 33.9508 49.056 33.5168 48.804C33.0875 48.5473 32.7445 48.2043 32.4878 47.775C32.2358 47.3457 32.1098 46.8673 32.1098 46.34ZM39.7043 42H40.8803V49H39.7043V42ZM40.3063 40.859C40.1196 40.859 39.9633 40.7983 39.8373 40.677C39.7113 40.5557 39.6483 40.404 39.6483 40.222C39.6483 40.04 39.7113 39.8883 39.8373 39.767C39.9633 39.6457 40.1173 39.585 40.2993 39.585C40.4813 39.585 40.6353 39.6457 40.7613 39.767C40.8873 39.8883 40.9503 40.04 40.9503 40.222C40.9503 40.404 40.8873 40.5557 40.7613 40.677C40.6399 40.7983 40.4883 40.859 40.3063 40.859ZM48.2597 43.176L43.9547 47.824H48.2597V49H42.2817V47.824L46.5867 43.176H42.2817V42H48.2597V43.176Z" fill="#6E7747"/>
</svg>
