<svg width="72" height="44" viewBox="0 0 72 44" fill="none" xmlns="http://www.w3.org/2000/svg">
<path d="M18.433 41.133C18.055 41.119 17.6863 41.049 17.327 40.923C16.9723 40.7923 16.6597 40.6173 16.389 40.398C16.123 40.174 15.9293 39.9173 15.808 39.628L16.816 39.194C16.886 39.3527 17.012 39.502 17.194 39.642C17.376 39.782 17.586 39.894 17.824 39.978C18.062 40.062 18.3023 40.104 18.545 40.104C18.8017 40.104 19.042 40.0643 19.266 39.985C19.49 39.9057 19.672 39.789 19.812 39.635C19.9567 39.4763 20.029 39.2873 20.029 39.068C20.029 38.8347 19.9497 38.6527 19.791 38.522C19.637 38.3867 19.441 38.2817 19.203 38.207C18.9697 38.1277 18.7317 38.053 18.489 37.983C18.0083 37.8617 17.579 37.717 17.201 37.549C16.823 37.3763 16.5243 37.1593 16.305 36.898C16.0903 36.632 15.983 36.2937 15.983 35.883C15.983 35.449 16.102 35.0733 16.34 34.756C16.5827 34.4387 16.9 34.1937 17.292 34.021C17.684 33.8483 18.104 33.762 18.552 33.762C19.1167 33.762 19.6323 33.8833 20.099 34.126C20.5657 34.3687 20.9133 34.6977 21.142 35.113L20.197 35.666C20.1177 35.498 19.9963 35.351 19.833 35.225C19.6697 35.0943 19.483 34.9917 19.273 34.917C19.063 34.8423 18.8483 34.8027 18.629 34.798C18.3583 34.7887 18.104 34.8237 17.866 34.903C17.6327 34.9823 17.4437 35.1037 17.299 35.267C17.159 35.4257 17.089 35.624 17.089 35.862C17.089 36.0953 17.1637 36.2727 17.313 36.394C17.467 36.5153 17.6653 36.6133 17.908 36.688C18.1553 36.758 18.4237 36.8397 18.713 36.933C19.1377 37.0683 19.5343 37.2247 19.903 37.402C20.2717 37.5793 20.568 37.801 20.792 38.067C21.0207 38.333 21.1327 38.662 21.128 39.054C21.128 39.4833 20.9997 39.859 20.743 40.181C20.4863 40.4983 20.1527 40.741 19.742 40.909C19.336 41.077 18.8997 41.1517 18.433 41.133ZM25.3389 41.182C24.6949 41.182 24.1069 41.0163 23.5749 40.685C23.0476 40.3537 22.6253 39.9103 22.3079 39.355C21.9953 38.795 21.8389 38.1767 21.8389 37.5C21.8389 36.9867 21.9299 36.5083 22.1119 36.065C22.2939 35.617 22.5436 35.225 22.8609 34.889C23.1829 34.5483 23.5563 34.2823 23.9809 34.091C24.4056 33.8997 24.8583 33.804 25.3389 33.804C25.8663 33.804 26.3493 33.9113 26.7879 34.126C27.2313 34.336 27.6093 34.63 27.9219 35.008C28.2393 35.386 28.4749 35.8247 28.6289 36.324C28.7876 36.8233 28.8459 37.3577 28.8039 37.927H23.0919C23.1479 38.3237 23.2786 38.6783 23.4839 38.991C23.6893 39.299 23.9506 39.544 24.2679 39.726C24.5899 39.908 24.9469 40.0013 25.3389 40.006C25.7589 40.006 26.1393 39.8987 26.4799 39.684C26.8206 39.4647 27.0959 39.166 27.3059 38.788L28.5029 39.068C28.2229 39.6887 27.8006 40.1973 27.2359 40.594C26.6713 40.986 26.0389 41.182 25.3389 41.182ZM23.0569 37.003H27.6209C27.5836 36.611 27.4576 36.254 27.2429 35.932C27.0283 35.6053 26.7553 35.344 26.4239 35.148C26.0926 34.952 25.7309 34.854 25.3389 34.854C24.9469 34.854 24.5876 34.9497 24.2609 35.141C23.9343 35.3323 23.6636 35.5913 23.4489 35.918C23.2389 36.24 23.1083 36.6017 23.0569 37.003ZM35.5705 34H36.7465V41H35.5705L35.5215 39.817C35.3022 40.223 34.9989 40.552 34.6115 40.804C34.2289 41.056 33.7715 41.182 33.2395 41.182C32.7262 41.182 32.2455 41.0863 31.7975 40.895C31.3495 40.699 30.9529 40.4307 30.6075 40.09C30.2669 39.7447 30.0009 39.348 29.8095 38.9C29.6182 38.452 29.5225 37.969 29.5225 37.451C29.5225 36.9517 29.6159 36.4803 29.8025 36.037C29.9892 35.5937 30.2482 35.2063 30.5795 34.875C30.9155 34.539 31.3029 34.2777 31.7415 34.091C32.1802 33.8997 32.6515 33.804 33.1555 33.804C33.7062 33.804 34.1892 33.9347 34.6045 34.196C35.0199 34.4527 35.3559 34.7863 35.6125 35.197L35.5705 34ZM33.2185 40.041C33.6805 40.041 34.0795 39.929 34.4155 39.705C34.7562 39.4763 35.0175 39.1683 35.1995 38.781C35.3862 38.3937 35.4795 37.9667 35.4795 37.5C35.4795 37.024 35.3862 36.5947 35.1995 36.212C35.0129 35.8247 34.7492 35.519 34.4085 35.295C34.0725 35.0663 33.6759 34.952 33.2185 34.952C32.7565 34.952 32.3365 35.0663 31.9585 35.295C31.5805 35.5237 31.2795 35.8317 31.0555 36.219C30.8362 36.6017 30.7265 37.0287 30.7265 37.5C30.7265 37.9713 30.8409 38.4007 31.0695 38.788C31.2982 39.1707 31.6015 39.4763 31.9795 39.705C32.3575 39.929 32.7705 40.041 33.2185 40.041ZM38.1457 41V34H39.3217V34.875C39.569 34.5483 39.8817 34.2893 40.2597 34.098C40.6377 33.902 41.0483 33.804 41.4917 33.804C41.7623 33.804 42.0237 33.839 42.2757 33.909L41.7997 35.085C41.6083 35.0243 41.4217 34.994 41.2397 34.994C40.8897 34.994 40.5677 35.0803 40.2737 35.253C39.9843 35.421 39.7533 35.6497 39.5807 35.939C39.408 36.2283 39.3217 36.5503 39.3217 36.905V41H38.1457ZM47.6034 39.152L48.6534 39.719C48.3361 40.1623 47.9324 40.517 47.4424 40.783C46.9571 41.049 46.4298 41.182 45.8604 41.182C45.2164 41.182 44.6284 41.0163 44.0964 40.685C43.5691 40.3537 43.1468 39.9103 42.8294 39.355C42.5168 38.795 42.3604 38.1767 42.3604 37.5C42.3604 36.9867 42.4514 36.5083 42.6334 36.065C42.8154 35.617 43.0651 35.225 43.3824 34.889C43.7044 34.5483 44.0778 34.2823 44.5024 34.091C44.9271 33.8997 45.3798 33.804 45.8604 33.804C46.4298 33.804 46.9571 33.937 47.4424 34.203C47.9324 34.469 48.3361 34.826 48.6534 35.274L47.6034 35.841C47.3794 35.5657 47.1134 35.3533 46.8054 35.204C46.4974 35.0547 46.1824 34.98 45.8604 34.98C45.4264 34.98 45.0321 35.0967 44.6774 35.33C44.3274 35.5587 44.0498 35.8643 43.8444 36.247C43.6391 36.6297 43.5364 37.0473 43.5364 37.5C43.5364 37.9527 43.6391 38.3703 43.8444 38.753C44.0544 39.131 44.3344 39.4343 44.6844 39.663C45.0391 39.8917 45.4311 40.006 45.8604 40.006C46.2058 40.006 46.5301 39.9267 46.8334 39.768C47.1368 39.6093 47.3934 39.404 47.6034 39.152ZM55.9821 36.646V41H54.8061V36.905C54.8061 36.5503 54.7198 36.2283 54.5471 35.939C54.3744 35.6497 54.1434 35.421 53.8541 35.253C53.5648 35.0803 53.2428 34.994 52.8881 34.994C52.5381 34.994 52.2161 35.0803 51.9221 35.253C51.6328 35.421 51.4018 35.6497 51.2291 35.939C51.0564 36.2283 50.9701 36.5503 50.9701 36.905V41H49.7941V30.5H50.9701V34.875C51.2174 34.5483 51.5301 34.2893 51.9081 34.098C52.2861 33.902 52.6968 33.804 53.1401 33.804C53.6628 33.804 54.1388 33.9323 54.5681 34.189C55.0021 34.441 55.3451 34.7817 55.5971 35.211C55.8538 35.6403 55.9821 36.1187 55.9821 36.646Z" fill="#6E7747"/>
<path fill-rule="evenodd" clip-rule="evenodd" d="M40.8762 18.7429C39.9062 19.3694 38.8099 19.8238 37.618 20.0586C32.3709 21.0923 27.2565 17.4796 26.1945 11.9893C25.1326 6.49903 28.5253 1.21026 33.7724 0.176506C39.0194 -0.857244 44.1339 2.75549 45.1959 8.24578C45.8429 11.5913 44.836 14.8619 42.7634 17.1407L46.6001 20.8084C47.0969 21.2833 47.1362 22.0834 46.6878 22.5954C46.2395 23.1074 45.4733 23.1375 44.9765 22.6626L40.8762 18.7429ZM42.8207 8.71372C43.6171 12.8314 41.0726 16.798 37.1373 17.5733C33.202 18.3486 29.3661 15.6391 28.5697 11.5214C27.7732 7.40366 30.3178 3.43708 34.2531 2.66177C38.1884 1.88645 42.0242 4.59601 42.8207 8.71372Z" fill="#6E7747"/>
</svg>
