<svg width="72" height="53" viewBox="0 0 72 53" fill="none" xmlns="http://www.w3.org/2000/svg">
<path d="M30.0833 14.4963C30.0833 12.9787 30.7019 11.5191 31.8094 10.4399C32.9176 9.35998 34.4246 8.74997 36 8.74997C37.5754 8.74997 39.0824 9.35998 40.1906 10.4399C41.2982 11.5191 41.9167 12.9787 41.9167 14.4963C41.9167 16.014 41.2982 17.4736 40.1906 18.5528C39.0824 19.6327 37.5754 20.2427 36 20.2427C34.4246 20.2427 32.9176 19.6327 31.8094 18.5528C30.7019 17.4736 30.0833 16.014 30.0833 14.4963ZM27.4997 29.5115L26.9792 30.0457L27.4997 29.5115C27.0173 29.0414 26.75 28.408 26.75 27.7518C26.75 26.5213 27.2515 25.3371 28.1506 24.4609C29.0504 23.5841 30.2749 23.0882 31.5556 23.0882H40.4444C41.7251 23.0882 42.9496 23.5841 43.8494 24.4609C44.7485 25.3371 45.25 26.5213 45.25 27.7518C45.25 28.408 44.9827 29.0414 44.5003 29.5115C44.0172 29.9822 43.358 30.25 42.6667 30.25H29.3333C28.642 30.25 27.9828 29.9822 27.4997 29.5115Z" stroke="#6E7747" stroke-width="1.5"/>
<path d="M18.4721 52.5H17.2961V42H18.4721V43.197C18.7101 42.7863 19.0274 42.455 19.4241 42.203C19.8207 41.9463 20.2921 41.818 20.8381 41.818C21.3467 41.818 21.8227 41.9137 22.2661 42.105C22.7141 42.2963 23.1061 42.5623 23.4421 42.903C23.7781 43.239 24.0417 43.6287 24.2331 44.072C24.4244 44.5153 24.5201 44.9913 24.5201 45.5C24.5201 46.0087 24.4244 46.487 24.2331 46.935C24.0417 47.383 23.7781 47.7773 23.4421 48.118C23.1061 48.454 22.7141 48.7177 22.2661 48.909C21.8227 49.1003 21.3467 49.196 20.8381 49.196C20.2921 49.196 19.8207 49.07 19.4241 48.818C19.0274 48.5613 18.7101 48.2277 18.4721 47.817V52.5ZM20.8241 42.959C20.3714 42.959 19.9747 43.0733 19.6341 43.302C19.2934 43.5307 19.0297 43.8363 18.8431 44.219C18.6611 44.6017 18.5701 45.0287 18.5701 45.5C18.5701 45.9667 18.6611 46.3937 18.8431 46.781C19.0297 47.1683 19.2911 47.4763 19.6271 47.705C19.9677 47.9337 20.3667 48.048 20.8241 48.048C21.2767 48.048 21.6921 47.936 22.0701 47.712C22.4481 47.4833 22.7514 47.1777 22.9801 46.795C23.2087 46.4077 23.3231 45.976 23.3231 45.5C23.3231 45.0333 23.2111 44.6087 22.9871 44.226C22.7631 43.8387 22.4621 43.5307 22.0841 43.302C21.7061 43.0733 21.2861 42.959 20.8241 42.959ZM25.6906 49V42H26.8666V42.875C27.1139 42.5483 27.4266 42.2893 27.8046 42.098C28.1826 41.902 28.5933 41.804 29.0366 41.804C29.3073 41.804 29.5686 41.839 29.8206 41.909L29.3446 43.085C29.1533 43.0243 28.9666 42.994 28.7846 42.994C28.4346 42.994 28.1126 43.0803 27.8186 43.253C27.5293 43.421 27.2983 43.6497 27.1256 43.939C26.9529 44.2283 26.8666 44.5503 26.8666 44.905V49H25.6906ZM33.4054 49.182C32.7614 49.182 32.1734 49.0163 31.6414 48.685C31.114 48.3537 30.6917 47.9103 30.3744 47.355C30.0617 46.795 29.9054 46.1767 29.9054 45.5C29.9054 44.9867 29.9964 44.5083 30.1784 44.065C30.3604 43.617 30.61 43.225 30.9274 42.889C31.2494 42.5483 31.6227 42.2823 32.0474 42.091C32.472 41.8997 32.9247 41.804 33.4054 41.804C34.0494 41.804 34.635 41.9697 35.1624 42.301C35.6944 42.6323 36.1167 43.078 36.4294 43.638C36.7467 44.198 36.9054 44.8187 36.9054 45.5C36.9054 46.0087 36.8144 46.4847 36.6324 46.928C36.4504 47.3713 36.1984 47.7633 35.8764 48.104C35.559 48.44 35.188 48.7037 34.7634 48.895C34.3434 49.0863 33.8907 49.182 33.4054 49.182ZM33.4054 48.006C33.844 48.006 34.2384 47.8917 34.5884 47.663C34.943 47.4297 35.2207 47.124 35.4214 46.746C35.6267 46.3633 35.7294 45.948 35.7294 45.5C35.7294 45.0427 35.6244 44.6227 35.4144 44.24C35.209 43.8573 34.9314 43.5517 34.5814 43.323C34.2314 43.0943 33.8394 42.98 33.4054 42.98C32.9667 42.98 32.5724 43.0967 32.2224 43.33C31.8724 43.5587 31.5947 43.8643 31.3894 44.247C31.184 44.6297 31.0814 45.0473 31.0814 45.5C31.0814 45.9667 31.1864 46.3913 31.3964 46.774C31.6064 47.152 31.8887 47.453 32.2434 47.677C32.598 47.8963 32.9854 48.006 33.4054 48.006ZM39.7483 40.271V42H41.7993V43.176H39.7483V49H38.5723V43.176H37.6693V42H38.5723V40.271C38.5723 39.9117 38.6587 39.5873 38.8313 39.298C39.0087 39.004 39.2443 38.7707 39.5383 38.598C39.837 38.4207 40.1637 38.332 40.5183 38.332C40.7797 38.332 41.034 38.3857 41.2813 38.493C41.5287 38.5957 41.748 38.7497 41.9393 38.955L41.0993 39.788C41.034 39.6993 40.9477 39.6317 40.8403 39.585C40.7377 39.5337 40.6303 39.508 40.5183 39.508C40.3083 39.508 40.1263 39.5827 39.9723 39.732C39.823 39.8813 39.7483 40.061 39.7483 40.271ZM42.8761 42H44.0521V49H42.8761V42ZM43.4781 40.859C43.2915 40.859 43.1351 40.7983 43.0091 40.677C42.8831 40.5557 42.8201 40.404 42.8201 40.222C42.8201 40.04 42.8831 39.8883 43.0091 39.767C43.1351 39.6457 43.2891 39.585 43.4711 39.585C43.6531 39.585 43.8071 39.6457 43.9331 39.767C44.0591 39.8883 44.1221 40.04 44.1221 40.222C44.1221 40.404 44.0591 40.5557 43.9331 40.677C43.8118 40.7983 43.6601 40.859 43.4781 40.859ZM45.7746 49V38.5H46.9506V49H45.7746ZM51.6436 49.182C50.9996 49.182 50.4116 49.0163 49.8796 48.685C49.3523 48.3537 48.93 47.9103 48.6126 47.355C48.3 46.795 48.1436 46.1767 48.1436 45.5C48.1436 44.9867 48.2346 44.5083 48.4166 44.065C48.5986 43.617 48.8483 43.225 49.1656 42.889C49.4876 42.5483 49.861 42.2823 50.2856 42.091C50.7103 41.8997 51.163 41.804 51.6436 41.804C52.171 41.804 52.654 41.9113 53.0926 42.126C53.536 42.336 53.914 42.63 54.2266 43.008C54.544 43.386 54.7796 43.8247 54.9336 44.324C55.0923 44.8233 55.1506 45.3577 55.1086 45.927H49.3966C49.4526 46.3237 49.5833 46.6783 49.7886 46.991C49.994 47.299 50.2553 47.544 50.5726 47.726C50.8946 47.908 51.2516 48.0013 51.6436 48.006C52.0636 48.006 52.444 47.8987 52.7846 47.684C53.1253 47.4647 53.4006 47.166 53.6106 46.788L54.8076 47.068C54.5276 47.6887 54.1053 48.1973 53.5406 48.594C52.976 48.986 52.3436 49.182 51.6436 49.182ZM49.3616 45.003H53.9256C53.8883 44.611 53.7623 44.254 53.5476 43.932C53.333 43.6053 53.06 43.344 52.7286 43.148C52.3973 42.952 52.0356 42.854 51.6436 42.854C51.2516 42.854 50.8923 42.9497 50.5656 43.141C50.239 43.3323 49.9683 43.5913 49.7536 43.918C49.5436 44.24 49.413 44.6017 49.3616 45.003Z" fill="#6E7747"/>
</svg>
